<svg xmlns="http://www.w3.org/2000/svg" viewBox="104 168 20 20">
  <title>Profound</title>
  <path d="M104.769 181.083V175.935C104.769 175.178 105.138 174.467 105.76 174.025L112.49 169.242C112.922 168.935 113.442 168.769 113.975 168.769H113.996C114.549 168.769 115.084 168.94 115.53 169.257C117.012 170.31 120.517 172.801 122.24 174.026C122.862 174.467 123.231 175.178 123.231 175.935V180.065C123.231 180.822 122.862 181.532 122.24 181.974L115.516 186.748C115.075 187.062 114.544 187.231 114 187.231C113.454 187.231 112.922 187.062 112.478 186.747C111.598 186.123 110.183 185.118 110.183 185.118V178.764C110.183 178.681 110.279 178.632 110.347 178.681L113.939 181.234C113.976 181.259 114.024 181.259 114.061 181.234L118.494 178.083C118.551 178.042 118.551 177.958 118.494 177.917L114.061 174.766C114.024 174.74 113.976 174.74 113.939 174.766L104.934 181.166C104.865 181.215 104.769 181.167 104.769 181.083Z" fill="#fff" />
</svg>
